<?xml version="1.0" encoding="utf-8"?>
<!-- Generator: Adobe Illustrator 27.2.0, SVG Export Plug-In . SVG Version: 6.00 Build 0)  -->
<svg version="1.1" id="Layer_1" xmlns="http://www.w3.org/2000/svg" xmlns:xlink="http://www.w3.org/1999/xlink" x="0px" y="0px"
	 viewBox="0 0 330 205" style="enable-background:new 0 0 330 205;" xml:space="preserve">
<style type="text/css">
	.st0{fill:#EDBC1D;}
	.st1{fill:#FFFFFF;}
</style>
<g>
	<path class="st0" d="M247.7,67.8l-5.8-21L228,48c-1.7-2.8-3.7-5.3-6-7.6l4.5-13.2l-19-10.8l-9,10.6c-3.1-0.7-6.3-1.1-9.6-1.2
		l-6.2-12.5l-21,5.8l1.1,13.9c-2.8,1.7-5.3,3.7-7.6,6L142,34.4l-10.8,19l10.6,9c-0.7,3.1-1.1,6.3-1.2,9.6l-12.5,6.2l5.8,21l13.9-1.1
		c1.7,2.8,3.7,5.3,6,7.6l-4.5,13.2l19,10.8l9-10.6c3.1,0.7,6.3,1.1,9.6,1.2l6.2,12.5l21-5.8l-1.1-13.9c2.8-1.7,5.3-3.7,7.6-6
		l13.2,4.5l10.8-19l-10.6-9c0.7-3.1,1.1-6.3,1.2-9.6L247.7,67.8z M212.5,66.3c3.7,13.5-4.2,27.6-17.8,31.3
		c-13.5,3.7-27.6-4.2-31.3-17.8c-3.7-13.5,4.2-27.6,17.8-31.3S208.8,52.7,212.5,66.3z"/>
	<path class="st0" d="M298.4,147l-1.6-16.1l-10.4-0.9c-0.9-2.3-2.1-4.4-3.4-6.4l5-9.1l-12.5-10.3l-8,6.7c-2.2-0.9-4.5-1.6-6.9-2.1
		l-2.9-10l-16.1,1.6l-0.9,10.3c-2.3,0.9-4.4,2.1-6.4,3.4l-9.1-5l-10.3,12.5l6.7,8c-0.9,2.2-1.6,4.5-2.1,6.9l-10,2.9l1.6,16.1
		l10.4,0.9c0.9,2.2,2.1,4.4,3.4,6.4l-5,9.1l12.5,10.3l8-6.7c2.2,0.9,4.5,1.6,6.9,2.1l2.9,10l16.1-1.6l0.9-10.3
		c2.3-0.9,4.4-2.1,6.4-3.4l9.1,5l10.3-12.5l-6.7-8c0.9-2.2,1.6-4.5,2.1-6.9L298.4,147z M272.7,141.4c1,10.4-6.6,19.7-17,20.7
		c-10.4,1-19.7-6.6-20.7-17c-1-10.4,6.6-19.7,17-20.7C262.4,123.4,271.7,131,272.7,141.4z"/>
	<g>
		
			<image style="overflow:visible;opacity:0.67;" width="1348" height="720" xlink:href="2B8796F1.png"  transform="matrix(0.24 0 0 0.24 18.678 40.9525)">
		</image>
		<g>
			<g>
				<g>
					<path class="st1" d="M26.8,49.7h9.8l2.5,18.3c0.5,4.2,1.1,8.4,1.6,12.7h0.2c0.8-4.3,1.6-8.5,2.4-12.7l4.1-18.3h8.1l4.1,18.3
						c0.8,4.1,1.5,8.4,2.3,12.7h0.3c0.5-4.3,1-8.5,1.5-12.7l2.6-18.3h9.1l-6.9,40.1H56.4l-3.6-17.4c-0.6-3.1-1.2-6.3-1.6-9.3H51
						c-0.5,3-1,6.2-1.6,9.3l-3.5,17.4H34.1L26.8,49.7z"/>
					<path class="st1" d="M79.1,69.5c0-13.1,7.4-20.5,18.3-20.5c10.9,0,18.3,7.5,18.3,20.5c0,13.1-7.4,21-18.3,21
						C86.5,90.5,79.1,82.6,79.1,69.5z M105.9,69.5c0-7.7-3.3-12.3-8.5-12.3c-5.3,0-8.5,4.6-8.5,12.3s3.2,12.7,8.5,12.7
						C102.7,82.2,105.9,77.2,105.9,69.5z"/>
					<path class="st1" d="M123.2,49.7h14.7c8.5,0,15.6,3,15.6,12.6c0,5.9-2.7,9.6-6.9,11.6l8.9,15.9h-10.8l-7.4-14.1h-4.6v14.1h-9.6
						V49.7z M137.1,68.1c4.6,0,7-2,7-5.8c0-3.8-2.5-5-7-5h-4.3v10.8H137.1z"/>
					<path class="st1" d="M161.2,49.7h9.6v15.9h0.2l11.3-15.9h10.5l-12.1,16.1l14.4,24h-10.5l-9.5-16.4l-4.4,5.9v10.5h-9.6V49.7z"/>
				</g>
				<g>
					<path class="st1" d="M30.6,100.3h9.6v40.1h-9.6V100.3z"/>
					<path class="st1" d="M49.4,100.3h9.8l9.9,19.2l3.9,8.9h0.3c-0.5-4.2-1.3-10-1.3-14.8v-13.3h9.1v40.1h-9.8l-9.9-19.3l-3.9-8.8
						h-0.3c0.4,4.5,1.2,9.9,1.2,14.8v13.3h-9.1V100.3z"/>
				</g>
				<g>
					<path class="st1" d="M30.6,150.9h14.1c8.8,0,16,3.2,16,13.1c0,9.5-7.3,13.7-15.8,13.7h-4.7V191h-9.6V150.9z M44.4,170.1
						c4.7,0,6.9-2.2,6.9-6.1c0-4-2.6-5.4-7.2-5.4h-3.9v11.6H44.4z"/>
					<path class="st1" d="M67.6,150.9h14.7c8.5,0,15.6,3,15.6,12.6c0,5.9-2.7,9.6-6.9,11.6l8.9,15.9H89.2l-7.4-14.1h-4.6V191h-9.6
						V150.9z M81.5,169.3c4.6,0,7-2,7-5.8c0-3.8-2.5-5-7-5h-4.3v10.8H81.5z"/>
					<path class="st1" d="M103.8,170.8c0-13.1,7.4-20.5,18.3-20.5c10.9,0,18.3,7.5,18.3,20.5c0,13.1-7.4,21-18.3,21
						C111.2,191.7,103.8,183.9,103.8,170.8z M130.7,170.8c0-7.7-3.3-12.3-8.5-12.3c-5.3,0-8.5,4.6-8.5,12.3s3.2,12.7,8.5,12.7
						C127.4,183.4,130.7,178.5,130.7,170.8z"/>
					<path class="st1" d="M146.1,171.2c0-13.3,9-21,19.7-21c5.9,0,10.1,2.5,12.8,5.2l-5.1,6.1c-2-1.8-4.1-3.1-7.4-3.1
						c-5.9,0-10.2,4.6-10.2,12.4c0,8,3.5,12.6,11,12.6c1.4,0,2.9-0.4,3.8-1V176h-6.3v-7.9h14.9v18.7c-2.8,2.7-7.7,4.9-13.3,4.9
						C154.8,191.7,146.1,184.7,146.1,171.2z"/>
					<path class="st1" d="M187.3,150.9H202c8.5,0,15.6,3,15.6,12.6c0,5.9-2.7,9.6-6.9,11.6l8.9,15.9h-10.8l-7.4-14.1h-4.6V191h-9.6
						V150.9z M201.2,169.3c4.6,0,7-2,7-5.8c0-3.8-2.5-5-7-5h-4.3v10.8H201.2z"/>
					<path class="st1" d="M225.4,150.9h25.4v8H235v7.4h13.4v8.1H235v8.5h16.3v8.1h-26V150.9z"/>
					<path class="st1" d="M256.7,186l5.5-6.6c2.8,2.4,6.5,4.1,9.7,4.1c3.5,0,5.2-1.3,5.2-3.5c0-2.3-2.2-3.1-5.6-4.5l-5.1-2.2
						c-4.2-1.7-8.1-5.2-8.1-11c0-6.7,6-12.1,14.5-12.1c4.6,0,9.5,1.8,13,5.3l-4.8,6c-2.6-2-5.1-3.1-8.2-3.1c-3,0-4.7,1.2-4.7,3.3
						c0,2.3,2.5,3.1,6,4.5l5,2c4.9,2,7.9,5.3,7.9,11c0,6.7-5.6,12.5-15.3,12.5C266.5,191.7,260.9,189.8,256.7,186z"/>
					<path class="st1" d="M289.9,186l5.5-6.6c2.8,2.4,6.5,4.1,9.7,4.1c3.5,0,5.2-1.3,5.2-3.5c0-2.3-2.2-3.1-5.6-4.5l-5.1-2.2
						c-4.2-1.7-8.1-5.2-8.1-11c0-6.7,6-12.1,14.5-12.1c4.6,0,9.5,1.8,13,5.3l-4.8,6c-2.6-2-5.1-3.1-8.2-3.1c-3,0-4.7,1.2-4.7,3.3
						c0,2.3,2.5,3.1,6,4.5l5,2c4.9,2,7.9,5.3,7.9,11c0,6.7-5.6,12.5-15.3,12.5C299.6,191.7,294,189.8,289.9,186z"/>
				</g>
			</g>
		</g>
	</g>
	<g>
		<g>
			<path class="st0" d="M9.9,37.9c-0.1-3.7,0.8-6.7,2.5-9.6l2,0.8c-1.4,2.7-2,5.8-2,8.7c0.1,2.9,0.8,6,2.4,8.6l-2,0.9
				C11,44.5,10,41.5,9.9,37.9z"/>
			<path class="st0" d="M16.4,38.3c-0.1-3.3,2.3-5.5,4.8-5.5c3-0.1,4.5,2.1,4.5,4.9c0,0.6,0,1.1-0.1,1.4l-6.1,0.1
				c0.3,1.4,1.3,2,2.6,1.9c0.7,0,1.4-0.3,2.2-0.7l1.1,1.9c-1.1,0.8-2.5,1.2-3.7,1.3C18.8,43.7,16.5,41.8,16.4,38.3z M23,37
				c0-1-0.5-1.8-1.7-1.7c-0.9,0-1.7,0.6-1.8,1.8L23,37z"/>
			<path class="st0" d="M26.5,32.9l3.3-0.1l1.4,4.7c0.3,1,0.6,2.1,0.9,3.2l0.1,0c0.2-1.1,0.5-2.2,0.7-3.2l1.2-4.8l3.1-0.1l-3.1,10.4
				l-3.7,0.1L26.5,32.9z"/>
			<path class="st0" d="M37.9,37.8c-0.1-3.4,2.3-5.5,4.9-5.5c2.6-0.1,5.1,1.9,5.2,5.3c0.1,3.4-2.3,5.5-4.9,5.6
				C40.5,43.2,38,41.3,37.9,37.8z M44.7,37.7c0-1.7-0.6-2.8-1.8-2.8c-1.2,0-1.7,1.1-1.7,2.8c0,1.7,0.6,2.8,1.8,2.8
				C44.3,40.5,44.8,39.4,44.7,37.7z"/>
			<path class="st0" d="M50.1,39.3l-0.3-11.2l3.2-0.1l0.3,11.3c0,0.7,0.3,0.9,0.6,0.9c0.1,0,0.2,0,0.4,0l0.4,2.4
				c-0.3,0.2-0.9,0.3-1.6,0.3C50.9,42.9,50.2,41.5,50.1,39.3z"/>
			<path class="st0" d="M56,38.6l-0.2-6.4l3.2-0.1l0.1,6c0,1.4,0.4,1.8,1.2,1.8c0.7,0,1.2-0.3,1.7-1.1L62,32.1l3.2-0.1l0.2,10.3
				l-2.6,0.1L62.6,41l-0.1,0c-0.8,1-1.8,1.7-3.2,1.7C57.1,42.8,56.1,41.2,56,38.6z"/>
			<path class="st0" d="M68.4,38.4l-0.1-4l-1.4,0l-0.1-2.4l1.6-0.2l0.3-2.8l2.7-0.1l0.1,2.7l2.4-0.1l0.1,2.5l-2.4,0.1l0.1,3.9
				c0,1.1,0.6,1.6,1.3,1.6c0.3,0,0.7-0.1,0.9-0.2l0.6,2.3c-0.5,0.2-1.3,0.4-2.3,0.4C69.6,42.5,68.5,40.9,68.4,38.4z"/>
			<path class="st0" d="M75.7,28.7c0-1,0.7-1.7,1.8-1.7c1.1,0,1.8,0.6,1.8,1.6c0,1-0.7,1.7-1.8,1.7C76.4,30.3,75.7,29.7,75.7,28.7z
				 M76,31.8l3.2-0.1L79.4,42l-3.2,0.1L76,31.8z"/>
			<path class="st0" d="M81.3,36.8c-0.1-3.4,2.3-5.5,4.9-5.5c2.6-0.1,5.1,1.9,5.2,5.3c0.1,3.4-2.3,5.5-4.9,5.6
				C83.9,42.2,81.4,40.2,81.3,36.8z M88.1,36.6c0-1.7-0.6-2.8-1.8-2.8c-1.2,0-1.7,1.1-1.7,2.8c0,1.7,0.6,2.8,1.8,2.8
				C87.7,39.5,88.2,38.4,88.1,36.6z"/>
			<path class="st0" d="M93.4,31.4l2.6-0.1l0.3,1.3l0.1,0c0.8-0.9,1.9-1.6,3.3-1.6c2.3-0.1,3.3,1.5,3.3,4.1l0.2,6.4l-3.2,0.1l-0.1-6
				c0-1.4-0.4-1.8-1.2-1.8c-0.7,0-1.2,0.4-1.8,1l0.2,6.9l-3.2,0.1L93.4,31.4z"/>
			<path class="st0" d="M105,38.5c-0.1-2.2,1.6-3.4,5.7-3.9c-0.1-0.8-0.5-1.3-1.6-1.3c-0.8,0-1.7,0.4-2.7,1l-1.2-2.1
				c1.3-0.8,2.8-1.4,4.4-1.5c2.7-0.1,4.2,1.4,4.3,4.6l0.1,5.9l-2.6,0.1l-0.2-1l-0.1,0c-0.8,0.8-1.8,1.3-2.9,1.4
				C106.3,41.6,105.1,40.3,105,38.5z M110.8,38.2l0-1.7c-2,0.3-2.7,0.9-2.6,1.6c0,0.6,0.5,0.9,1.1,0.9
				C109.9,39.1,110.3,38.7,110.8,38.2z"/>
			<path class="st0" d="M116.5,37.8l-0.3-11.2l3.2-0.1l0.3,11.3c0,0.7,0.3,0.9,0.6,0.9c0.1,0,0.2,0,0.4,0l0.4,2.4
				c-0.3,0.2-0.9,0.3-1.6,0.3C117.3,41.4,116.5,40,116.5,37.8z"/>
			<path class="st0" d="M122.4,43.9c1.4-2.7,2-5.8,2-8.7c-0.1-2.9-0.8-6-2.4-8.6l2-0.9c1.8,2.8,2.9,5.8,3,9.4
				c0.1,3.7-0.8,6.7-2.5,9.6L122.4,43.9z"/>
		</g>
	</g>
</g>
</svg>
