<?xml version="1.0" encoding="utf-8"?>
<!-- Generator: Adobe Illustrator 27.2.0, SVG Export Plug-In . SVG Version: 6.00 Build 0)  -->
<svg version="1.1" id="Layer_1" xmlns="http://www.w3.org/2000/svg" xmlns:xlink="http://www.w3.org/1999/xlink" x="0px" y="0px"
	 viewBox="0 0 330 205" style="enable-background:new 0 0 330 205;" xml:space="preserve">
<style type="text/css">
	.st0{fill:#EDBC1D;}
	.st1{fill:none;stroke:#EDBC1D;stroke-width:7;stroke-miterlimit:10;}
	.st2{fill:none;stroke:#EDBC1D;stroke-width:9;stroke-miterlimit:10;}
</style>
<g>
	<path class="st0" d="M190,116.4l0-28.8l-18.1-3.5C170.6,80,169,76,167,72.3L177.3,57L157,36.7L141.7,47c-3.7-2-7.7-3.7-11.8-4.9
		L126.4,24l-28.8,0l-3.5,18.1C90,43.4,86,45,82.3,47L67,36.7L46.7,57L57,72.3c-2,3.7-3.7,7.7-4.9,11.8L34,87.6l0,28.8l18.1,3.5
		c1.2,4.1,2.9,8.1,4.9,11.8L46.7,147L67,167.3L82.3,157c3.7,2,7.7,3.7,11.8,4.9l3.5,18.1l28.8,0l3.5-18.1c4.1-1.2,8.1-2.9,11.8-4.9
		l15.3,10.4l20.4-20.4L167,131.7c2-3.7,3.7-7.7,4.9-11.8L190,116.4z M145.7,102c0,18.6-15.1,33.7-33.7,33.7
		c-18.6,0-33.7-15.1-33.7-33.7c0-18.6,15.1-33.7,33.7-33.7C130.6,68.3,145.7,83.4,145.7,102z"/>
	<path class="st0" d="M192.4,154.1l16,14.3l10.9-8.3c2.9,1.4,5.9,2.4,9,3.1l3.3,13.3l21.4-1.2l1.8-13.6c3-1.1,5.8-2.4,8.6-4.1
		l11.8,7.1l14.3-16l-8.3-10.9c1.4-2.9,2.4-5.9,3.1-9l13.3-3.3l-1.2-21.4l-13.6-1.8c-1.1-3-2.4-5.8-4.1-8.6l7.1-11.8l-16-14.3
		L258.8,76c-2.9-1.4-5.9-2.4-9-3.1l-3.3-13.3L225,60.7l-1.8,13.6c-3,1.1-5.8,2.4-8.6,4.1l-11.8-7.1l-14.3,16l8.3,10.9
		c-1.4,2.9-2.4,5.9-3.1,9l-13.3,3.3l1.2,21.4l13.6,1.8c1.1,3,2.4,5.8,4.1,8.6L192.4,154.1z M222.3,136.7c-10.3-9.2-11.2-25.1-2-35.3
		s25.1-11.2,35.3-2s11.2,25.1,2,35.3S232.6,145.9,222.3,136.7z"/>
	<g>
		<polyline class="st1" points="230.9,146.6 259.5,118 230.9,89.3 		"/>
		<polyline class="st1" points="208.5,146.7 237.2,118 208.6,89.4 		"/>
	</g>
	<g>
		<polyline class="st2" points="105,139.8 142.3,102.4 105,65.1 		"/>
		<polyline class="st2" points="75.9,139.9 113.2,102.6 76,65.2 		"/>
	</g>
</g>
</svg>
