<?xml version="1.0" encoding="utf-8"?>
<!-- Generator: Adobe Illustrator 27.2.0, SVG Export Plug-In . SVG Version: 6.00 Build 0)  -->
<svg version="1.1" id="Layer_1" xmlns="http://www.w3.org/2000/svg" xmlns:xlink="http://www.w3.org/1999/xlink" x="0px" y="0px"
	 viewBox="0 0 64 64" style="enable-background:new 0 0 64 64;" xml:space="preserve">
<style type="text/css">
	.st0{clip-path:url(#SVGID_00000057125228602554859380000012647277306584469408_);}
	.st1{fill:#010101;}
	.st2{fill:#EEBC1D;}
	.st3{fill:#122222;}
	.st4{fill:none;}
</style>
<g>
	<g>
		<defs>
			<rect id="SVGID_1_" x="32" y="32" width="32" height="32"/>
		</defs>
		<clipPath id="SVGID_00000135678620323683951570000012526197744084866963_">
			<use xlink:href="#SVGID_1_"  style="overflow:visible;"/>
		</clipPath>
		<g style="clip-path:url(#SVGID_00000135678620323683951570000012526197744084866963_);">
			<g>
				
					<rect x="30.4" y="34.4" transform="matrix(0.7071 -0.7071 0.7071 0.7071 -35.8823 41.3726)" class="st1" width="3.2" height="59.3"/>
			</g>
			<g>
				
					<rect x="38.4" y="26.4" transform="matrix(0.7071 -0.7071 0.7071 0.7071 -27.8823 44.6863)" class="st1" width="3.2" height="59.3"/>
			</g>
			<g>
				
					<rect x="42.4" y="22.4" transform="matrix(0.7071 -0.7071 0.7071 0.7071 -23.8823 46.3431)" class="st1" width="3.2" height="59.3"/>
			</g>
			<g>
				
					<rect x="34.4" y="30.4" transform="matrix(0.7071 -0.7071 0.7071 0.7071 -31.8823 43.0294)" class="st1" width="3.2" height="59.3"/>
			</g>
			<g>
				<rect x="46.4" y="18.4" transform="matrix(0.7071 -0.7071 0.7071 0.7071 -19.8823 48)" class="st1" width="3.2" height="59.3"/>
			</g>
			<g>
				
					<rect x="50.4" y="14.4" transform="matrix(0.7071 -0.7071 0.7071 0.7071 -15.8823 49.6569)" class="st1" width="3.2" height="59.3"/>
			</g>
			<g>
				
					<rect x="54.4" y="10.4" transform="matrix(0.7071 -0.7071 0.7071 0.7071 -11.8823 51.3137)" class="st1" width="3.2" height="59.3"/>
			</g>
			<g>
				
					<rect x="58.4" y="6.4" transform="matrix(0.7071 -0.7071 0.7071 0.7071 -7.8823 52.9706)" class="st1" width="3.2" height="59.3"/>
			</g>
			<g>
				
					<rect x="62.4" y="2.4" transform="matrix(0.7071 -0.7071 0.7071 0.7071 -3.8823 54.6274)" class="st1" width="3.2" height="59.3"/>
			</g>
		</g>
	</g>
	<rect class="st2" width="32" height="32"/>
	<rect x="32" class="st1" width="32" height="32"/>
	<rect y="32" class="st3" width="32" height="32"/>
	<rect class="st4" width="32" height="32"/>
	<polygon class="st1" points="0,32 16,16 0,0 0,5.3 10.7,16 0,26.7 	"/>
	<polygon class="st1" points="10.7,0 26.7,16 10.7,32 16,32 32,16 16,0 	"/>
</g>
</svg>
